<svg fill="none" height="24" viewBox="0 0 25 24" width="25" xmlns="http://www.w3.org/2000/svg"><g fill="#c7c5cb"><path d="m19.3334 8.5c0 3.0376-3.134 5.5-7 5.5-3.86602 0-7.00003-2.4624-7.00003-5.5 0-3.03757 3.13401-6.5 7.00003-6.5 3.866 0 7 3.46243 7 6.5z"/><path d="m5.33337 8h14v6h-14z"/><path d="m5.33337 13h14.00003l2.0913 3.4855c.3999.6665-.0802 1.5145-.8575 1.5145h-16.46764c-.77729 0-1.2574-.848-.85749-1.5145z"/><path clip-rule="evenodd" d="m8.33337 19c0 1.6569 1.79083 3 4.00003 3 2.2091 0 4-1.3431 4-3z" fill-rule="evenodd"/></g></svg>