<svg width="96" height="96" viewBox="0 0 96 96" fill="none" xmlns="http://www.w3.org/2000/svg">
<path fill-rule="evenodd" clip-rule="evenodd" d="M53.8092 1.90214C50.3817 -0.634049 45.5301 -0.634047 42.1026 1.90214L0.0352375 33.03C0.0180802 33.0428 0.0196275 33.0674 0.0382531 33.0782L0.044908 33.0821C0.0700844 33.0965 0.0590324 33.1327 0.0294166 33.1327C0.0131703 33.1327 0 33.145 0 33.1602V82.4294C0 87.2723 4.21379 91.1982 9.41176 91.1982H86.5882C91.7862 91.1982 96 87.2723 96 82.4294V33.1783C96 33.1532 95.9783 33.1327 95.9511 33.1327H95.8899C95.8588 33.1327 95.8466 33.0938 95.8739 33.0782C95.8927 33.0674 95.8937 33.0428 95.8767 33.03L53.8092 1.90214Z" fill="#999999"/>
<path d="M77.0285 9.60156H17.0514C11.8757 9.60156 7.67996 13.6309 7.67996 18.6014V72.6003C7.67996 77.5708 11.8757 81.6002 17.0514 81.6002H77.0285C82.2042 81.6002 86.4 77.5708 86.4 72.6003V18.6014C86.4 13.6309 82.2042 9.60156 77.0285 9.60156Z" fill="#ECECEC"/>
<path d="M61.5915 21.1172H32.4883C30.9814 21.1172 29.7599 22.4066 29.7599 23.9971C29.7599 25.5877 30.9814 26.8771 32.4883 26.8771H61.5915C63.0983 26.8771 64.3199 25.5877 64.3199 23.9971C64.3199 22.4066 63.0983 21.1172 61.5915 21.1172Z" fill="#CCCCCC"/>
<path d="M58.5601 33.6016H35.5201C33.9295 33.6016 32.6401 34.891 32.6401 36.4815C32.6401 38.0721 33.9295 39.3615 35.5201 39.3615H58.5601C60.1507 39.3615 61.4401 38.0721 61.4401 36.4815C61.4401 34.891 60.1507 33.6016 58.5601 33.6016Z" fill="#CCCCCC"/>
<path fill-rule="evenodd" clip-rule="evenodd" d="M96 33.6016L48 64.0754L0 33.6016V86.5458C0 91.7676 4.21379 96.0003 9.41176 96.0003H86.5882C91.7863 96.0003 96 91.7676 96 86.5458V33.6016Z" fill="#AEAEAE"/>
<path d="M81.6 19.2034C85.8416 19.2034 89.28 15.7651 89.28 11.5236C89.28 7.28214 85.8416 3.84375 81.6 3.84375C77.3585 3.84375 73.92 7.28214 73.92 11.5236C73.92 15.7651 77.3585 19.2034 81.6 19.2034Z" fill="#666666"/>
<path d="M79.6799 9.60156L83.5199 13.4415" stroke="white" stroke-width="1.5" stroke-linecap="round"/>
<path d="M79.6799 13.4415L83.5199 9.60156" stroke="white" stroke-width="1.5" stroke-linecap="round"/>
</svg>
