<svg width="40" height="40" viewBox="0 0 40 40" fill="none" xmlns="http://www.w3.org/2000/svg">
<circle cx="20" cy="20" r="20" fill="#666666"/>
<circle cx="20" cy="20" r="19.5" stroke="#808086" stroke-opacity="0.2"/>
<g clip-path="url(#clip0_1563_21656)">
<path d="M26.75 14.3077H24.44L23.97 13.3067C23.5952 12.5079 22.8072 12 21.9428 12H18.0572C17.1928 12 16.4048 12.5079 16.03 13.3067L15.56 14.3077H13.25C12.0124 14.3077 11 15.3461 11 16.6154V24.6927C11 25.962 12.0124 27.0004 13.25 27.0004H26.75C27.9876 27.0004 29 25.962 29 24.6927V16.6154C29 15.3461 27.9876 14.3077 26.75 14.3077ZM20 25.2695C17.5148 25.2695 15.5 23.203 15.5 20.6541C15.5 18.1051 17.5148 16.0386 20 16.0386C22.4852 16.0386 24.5 18.1051 24.5 20.6541C24.5 23.203 22.4852 25.2695 20 25.2695Z" fill="white"/>
<path d="M20 23.654C21.6153 23.654 22.9248 22.3109 22.9248 20.6541C22.9248 18.9974 21.6153 17.6543 20 17.6543C18.3847 17.6543 17.0752 18.9974 17.0752 20.6541C17.0752 22.3109 18.3847 23.654 20 23.654Z" fill="white"/>
</g>
<defs>
<clipPath id="clip0_1563_21656">
<rect width="18" height="15" fill="white" transform="translate(11 12)"/>
</clipPath>
</defs>
</svg>
