<svg width="37" height="36" viewBox="0 0 37 36" fill="none" xmlns="http://www.w3.org/2000/svg">
<g opacity="0.7" clip-path="url(#clip0_1371_17215)">
<g filter="url(#filter0_d_1371_17215)">
<path fill-rule="evenodd" clip-rule="evenodd" d="M26.6873 3C24.6163 3 22.9373 4.67893 22.9373 6.75V15.5H13.9375V6.75001C13.9375 4.67894 12.2585 3.00001 10.1875 3.00001C8.1164 3.00001 6.43747 4.67894 6.43747 6.75001V19.971L6.43738 20V27C6.43738 29.4853 8.4521 31.5 10.9374 31.5H25.9374C28.4227 31.5 30.4374 29.4853 30.4374 27V20L30.4373 19.9795V6.75C30.4373 4.67893 28.7584 3 26.6873 3ZM15.4373 24C15.4373 24.8284 14.7658 25.5 13.9373 25.5C13.1089 25.5 12.4373 24.8284 12.4373 24C12.4373 23.1716 13.1089 22.5 13.9373 22.5C14.7658 22.5 15.4373 23.1716 15.4373 24ZM22.9374 25.5C23.7659 25.5 24.4374 24.8284 24.4374 24C24.4374 23.1716 23.7659 22.5 22.9374 22.5C22.109 22.5 21.4374 23.1716 21.4374 24C21.4374 24.8284 22.109 25.5 22.9374 25.5Z" fill="white"/>
</g>
</g>
<defs>
<filter id="filter0_d_1371_17215" x="4.43738" y="1" width="32" height="36.5" filterUnits="userSpaceOnUse" color-interpolation-filters="sRGB">
<feFlood flood-opacity="0" result="BackgroundImageFix"/>
<feColorMatrix in="SourceAlpha" type="matrix" values="0 0 0 0 0 0 0 0 0 0 0 0 0 0 0 0 0 0 127 0" result="hardAlpha"/>
<feOffset dx="2" dy="2"/>
<feGaussianBlur stdDeviation="2"/>
<feComposite in2="hardAlpha" operator="out"/>
<feColorMatrix type="matrix" values="0 0 0 0 0 0 0 0 0 0 0 0 0 0 0 0 0 0 0.15 0"/>
<feBlend mode="normal" in2="BackgroundImageFix" result="effect1_dropShadow_1371_17215"/>
<feBlend mode="normal" in="SourceGraphic" in2="effect1_dropShadow_1371_17215" result="shape"/>
</filter>
<clipPath id="clip0_1371_17215">
<rect width="36" height="36" fill="white" transform="translate(0.4375)"/>
</clipPath>
</defs>
</svg>
