<svg width="32" height="32" viewBox="0 0 32 32" fill="none" xmlns="http://www.w3.org/2000/svg">
<path d="M32 16C32 24.8366 24.8366 32 16 32C7.16344 32 0 24.8366 0 16C0 7.16344 7.16344 0 16 0C24.8366 0 32 7.16344 32 16Z" fill="#313131"/>
<path d="M11.3022 20.1909C11.9159 20.8046 12.9109 20.8046 13.5246 20.1909L15.7466 17.9689L17.9691 20.1914C18.5828 20.805 19.5778 20.805 20.1915 20.1914C20.8052 19.5777 20.8052 18.5827 20.1915 17.969L17.969 15.7465L20.1916 13.5239C20.8053 12.9102 20.8053 11.9153 20.1916 11.3016C19.5779 10.6879 18.5829 10.6879 17.9693 11.3016L15.7466 13.5242L13.5245 11.302C12.9108 10.6883 11.9158 10.6883 11.3021 11.302C10.6885 11.9157 10.6885 12.9107 11.3021 13.5244L13.5243 15.7465L11.3022 17.9686C10.6886 18.5823 10.6886 19.5772 11.3022 20.1909Z" fill="white"/>
</svg>
