<svg fill="none" height="14" viewBox="0 0 14 14" width="14" xmlns="http://www.w3.org/2000/svg"><path clip-rule="evenodd" d="m7 14c-3.86599 0-7-3.134-7-7 0-3.86599 3.13401-7 7-7 3.866 0 7 3.13401 7 7 0 3.866-3.134 7-7 7zm-.81421-11 .05465 1.43669.22951 3.81396h1.04918l.2295-3.81396.05465-1.43669zm.09836 7.7209c.18944.1861.42623.2791.71039.2791.28415 0 .52094-.093.71038-.2791.19672-.1929.29508-.4306.29508-.7131 0-.28256-.09836-.51684-.29508-.70289-.18944-.19294-.42623-.28941-.71038-.28941-.28416 0-.52095.09647-.71039.28941-.18943.18605-.28415.42033-.28415.70289 0 .2825.09472.5202.28415.7131z" fill="#f05c2e" fill-rule="evenodd"/></svg>