<svg width="77" height="65" viewBox="0 0 77 65" fill="none" xmlns="http://www.w3.org/2000/svg">
<g clip-path="url(#clip0_1562_21645)">
<path d="M38.5003 0C17.2875 0 -4.34221 16.1556 0.755176 58.3054H19.2202C24.5022 62.4942 31.2047 65 38.5003 65C45.7959 65 52.4984 62.4942 57.7804 58.3054H76.2455C81.3408 16.1556 59.7132 0 38.5003 0ZM57.3905 53.1522C52.345 58.1454 45.6362 60.8954 38.5003 60.8954C31.3644 60.8954 24.6557 58.1454 19.6101 53.1522C14.5646 48.1589 11.7857 41.5198 11.7857 34.4579C11.7857 30.3779 12.7148 26.4417 14.4713 22.8809H44.0456L44.2924 22.3843L48.1082 14.6882L51.924 22.3843L52.1708 22.8809H62.5315C64.2859 26.4417 65.2149 30.38 65.2149 34.4579C65.2149 41.5198 62.4361 48.1589 57.3905 53.1522Z" fill="black"/>
<path d="M14.4627 22.7269C12.7082 26.2876 11.7792 30.226 11.7792 34.3039C11.7792 41.3658 14.5581 48.0049 19.6036 52.9981C24.6491 57.9913 31.3579 60.7414 38.4938 60.7414C45.6297 60.7414 52.3385 57.9913 57.384 52.9981C62.4295 48.0049 65.2084 41.3658 65.2084 34.3039C65.2084 30.226 64.2794 26.2876 62.5249 22.7269H52.1643L51.9175 22.2303L48.1017 14.5342L44.2859 22.2303L44.0391 22.7269H14.4627Z" fill="#F3D8CA"/>
<path d="M30.1364 37.8792C32.6562 37.8792 34.6988 35.8577 34.6988 33.3642C34.6988 30.8706 32.6562 28.8491 30.1364 28.8491C27.6167 28.8491 25.5741 30.8706 25.5741 33.3642C25.5741 35.8577 27.6167 37.8792 30.1364 37.8792Z" fill="black"/>
<path d="M51.1523 33.3642C51.1523 35.8577 49.1096 37.8792 46.5899 37.8792C44.0703 37.8792 42.0276 35.8577 42.0276 33.3642C42.0276 30.8706 44.0703 28.8491 46.5899 28.8491C49.1096 28.8491 51.1523 30.8706 51.1523 33.3642Z" fill="black"/>
<path d="M38.3631 51.9393C34.3379 51.9393 30.8498 49.2426 29.8792 45.3802C29.6449 44.4443 30.2193 43.4982 31.165 43.2663C32.1086 43.0344 33.0667 43.6029 33.301 44.5388C33.8796 46.8414 35.9596 48.4504 38.3631 48.4504C40.7667 48.4504 42.8467 46.8414 43.4253 44.5388C43.6596 43.6029 44.6156 43.0324 45.5613 43.2663C46.5069 43.4982 47.0814 44.4443 46.847 45.3802C45.8786 49.2426 42.3904 51.9393 38.3631 51.9393Z" fill="black"/>
</g>
<defs>
<clipPath id="clip0_1562_21645">
<rect width="77" height="65" fill="white"/>
</clipPath>
</defs>
</svg>
