<svg fill="none" height="24" viewBox="0 0 25 24" width="25" xmlns="http://www.w3.org/2000/svg" xmlns:xlink="http://www.w3.org/1999/xlink"><clipPath id="a"><path d="m.666626 0h24v24h-24z"/></clipPath><g clip-path="url(#a)"><path clip-rule="evenodd" d="m21.2726 10.352v-2.1c-.0078-.23337-.1059-.45458-.2738-.61692-.1678-.16233-.3922-.25308-.6257-.25308s-.4578.09075-.6257.25308c-.1678.16234-.266.38355-.2738.61692v2.1h-2.101c-.2387 0-.4676.0948-.6364.2636s-.2636.3977-.2636.6364.0948.4676.2636.6364.3977.2636.6364.2636h2.101v2.1c-.004.1206.0163.2409.0597.3535.0434.1127.109.2154.1929.3022s.1845.1558.2956.2029.2306.0714.3513.0714.2402-.0243.3514-.0714c.1111-.0471.2116-.1161.2955-.2029.084-.0868.1496-.1895.193-.3022.0434-.1126.0636-.2329.0596-.3535v-2.1h2.1c.2387 0 .4676-.0948.6364-.2636s.2636-.3977.2636-.6364-.0948-.4676-.2636-.6364-.3977-.2636-.6364-.2636zm-7.8212.0807c.8165-.81649 1.2752-1.92395 1.2752-3.0787s-.4587-2.26221-1.2752-3.07874c-.8166-.81654-1.924-1.27526-3.0788-1.27526-1.15473 0-2.26218.45872-3.07872 1.27526-.81653.81653-1.27525 1.92399-1.27525 3.07874s.45872 2.26221 1.27525 3.0787c.81654.8166 1.92399 1.2753 3.07872 1.2753 1.1548 0 2.2622-.4587 3.0788-1.2753zm-11.78477 8.4523c0 1.855 5.189 2.349 8.70597 2.349 3.517 0 8.706-.494 8.706-2.35 0-1.855-2.437-5.844-8.706-5.844-6.26897 0-8.70597 3.989-8.70597 5.845z" fill="#1e1928" fill-rule="evenodd"/></g></svg>