<svg width="44" height="44" viewBox="0 0 44 44" fill="none" xmlns="http://www.w3.org/2000/svg">
<rect width="44" height="44" rx="12" fill="#F9F9F9"/>
<g clip-path="url(#clip0_1459_21304)">
<path d="M31.6875 28.4H31.375V23.28C31.375 23.1041 31.2343 22.96 31.0625 22.96H25.4375V21.04H25.9063C25.9922 21.04 26.0625 20.9669 26.0625 20.8775V20.5528C26.0625 20.4634 26.0069 20.3457 25.9386 20.2914L22.1563 17.2667V15.9197C22.2581 15.8914 22.424 15.8615 22.6778 15.8615C23.1592 15.8615 23.4143 16.1181 23.7837 16.1181C24.2574 16.1181 24.5 15.9657 24.5 15.9657L24.4448 14.299C24.2876 14.4401 24.0996 14.4648 23.7961 14.4751C23.3565 14.4905 23.1324 14.1984 22.6799 14.1984C22.443 14.1983 22.2694 14.2217 22.1559 14.2443V14.16C22.1559 14.0718 22.086 14 21.9997 14C21.9133 14 21.8434 14.0718 21.8434 14.16V17.2669L18.0627 20.291C17.9946 20.3455 17.9388 20.4632 17.9385 20.5526L17.9379 20.8776C17.9376 20.967 18.0078 21.0401 18.0938 21.0401H18.5625V22.9601H12.9375C12.7657 22.9601 12.625 23.1042 12.625 23.2801V28.4001H12.3125C12.1407 28.4001 12 28.5442 12 28.7201V29.6801C12 29.856 12.1407 30.0001 12.3125 30.0001H31.6875C31.8593 30.0001 32 29.856 32 29.6801V28.7201C32 28.5442 31.8593 28.4001 31.6875 28.4001V28.4ZM15.125 27.6C15.125 27.6881 15.0547 27.76 14.9688 27.76H14.0313C13.9453 27.76 13.875 27.6881 13.875 27.6V26.64C13.875 26.5522 13.9453 26.48 14.0313 26.48H14.9688C15.0547 26.48 15.125 26.5522 15.125 26.64V27.6ZM15.125 25.36C15.125 25.4481 15.0547 25.52 14.9688 25.52H14.0313C13.9453 25.52 13.875 25.4481 13.875 25.36V24.4C13.875 24.3122 13.9453 24.24 14.0313 24.24H14.9688C15.0547 24.24 15.125 24.3122 15.125 24.4V25.36ZM17.3125 27.6C17.3125 27.6881 17.2422 27.76 17.1563 27.76H16.2188C16.1328 27.76 16.0625 27.6881 16.0625 27.6V26.64C16.0625 26.5522 16.1328 26.48 16.2188 26.48H17.1563C17.2422 26.48 17.3125 26.5522 17.3125 26.64V27.6ZM17.3125 25.36C17.3125 25.4481 17.2422 25.52 17.1563 25.52H16.2188C16.1328 25.52 16.0625 25.4481 16.0625 25.36V24.4C16.0625 24.3122 16.1328 24.24 16.2188 24.24H17.1563C17.2422 24.24 17.3125 24.3122 17.3125 24.4V25.36ZM19.5 27.6C19.5 27.6881 19.4297 27.76 19.3438 27.76H18.4063C18.3203 27.76 18.25 27.6881 18.25 27.6V26.64C18.25 26.5522 18.3203 26.48 18.4063 26.48H19.3438C19.4297 26.48 19.5 26.5522 19.5 26.64V27.6ZM19.5 25.36C19.5 25.4481 19.4297 25.52 19.3438 25.52H18.4063C18.3203 25.52 18.25 25.4481 18.25 25.36V24.4C18.25 24.3122 18.3203 24.24 18.4063 24.24H19.3438C19.4297 24.24 19.5 24.3122 19.5 24.4V25.36ZM23.25 29.2C23.25 29.2881 23.1797 29.36 23.0938 29.36H20.9063C20.8203 29.36 20.75 29.2881 20.75 29.2V26.8C20.75 26.0931 21.3097 25.52 22 25.52C22.6903 25.52 23.25 26.0931 23.25 26.8V29.2ZM22 23.6C21.3097 23.6 20.75 23.0269 20.75 22.32C20.75 21.6131 21.3097 21.04 22 21.04C22.6903 21.04 23.25 21.6131 23.25 22.32C23.25 23.0269 22.6903 23.6 22 23.6ZM25.75 27.6C25.75 27.6881 25.6797 27.76 25.5938 27.76H24.6563C24.5703 27.76 24.5 27.6881 24.5 27.6V26.64C24.5 26.5522 24.5703 26.48 24.6563 26.48H25.5938C25.6797 26.48 25.75 26.5522 25.75 26.64V27.6ZM25.75 25.36C25.75 25.4481 25.6797 25.52 25.5938 25.52H24.6563C24.5703 25.52 24.5 25.4481 24.5 25.36V24.4C24.5 24.3122 24.5703 24.24 24.6563 24.24H25.5938C25.6797 24.24 25.75 24.3122 25.75 24.4V25.36ZM27.9375 27.6C27.9375 27.6881 27.8672 27.76 27.7813 27.76H26.8438C26.7578 27.76 26.6875 27.6881 26.6875 27.6V26.64C26.6875 26.5522 26.7578 26.48 26.8438 26.48H27.7813C27.8672 26.48 27.9375 26.5522 27.9375 26.64V27.6ZM27.9375 25.36C27.9375 25.4481 27.8672 25.52 27.7813 25.52H26.8438C26.7578 25.52 26.6875 25.4481 26.6875 25.36V24.4C26.6875 24.3122 26.7578 24.24 26.8438 24.24H27.7813C27.8672 24.24 27.9375 24.3122 27.9375 24.4V25.36ZM30.125 27.6C30.125 27.6881 30.0547 27.76 29.9688 27.76H29.0313C28.9453 27.76 28.875 27.6881 28.875 27.6V26.64C28.875 26.5522 28.9453 26.48 29.0313 26.48H29.9688C30.0547 26.48 30.125 26.5522 30.125 26.64V27.6ZM30.125 25.36C30.125 25.4481 30.0547 25.52 29.9688 25.52H29.0313C28.9453 25.52 28.875 25.4481 28.875 25.36V24.4C28.875 24.3122 28.9453 24.24 29.0313 24.24H29.9688C30.0547 24.24 30.125 24.3122 30.125 24.4V25.36Z" fill="#3C3C43" fill-opacity="0.8"/>
<path d="M22.1563 22.1599V21.5199C22.1563 21.4316 22.0864 21.3599 22 21.3599C21.9136 21.3599 21.8438 21.4316 21.8438 21.5199V22.3199C21.8438 22.4083 21.9138 22.4799 22 22.4799H22.7813C22.8676 22.4799 22.9375 22.4083 22.9375 22.3199C22.9375 22.2314 22.8676 22.1599 22.7813 22.1599H22.1563Z" fill="#3C3C43" fill-opacity="0.8"/>
</g>
<defs>
<clipPath id="clip0_1459_21304">
<rect width="20" height="16" fill="white" transform="translate(12 14)"/>
</clipPath>
</defs>
</svg>
