<svg width="65" height="73" viewBox="0 0 65 73" fill="none" xmlns="http://www.w3.org/2000/svg">
<g clip-path="url(#clip0_1562_21615)">
<path d="M64.907 38.8286C64.8962 38.6916 64.8876 38.5546 64.8747 38.4175C64.7431 36.8501 64.4929 35.3169 64.1413 33.8222C64.1284 33.7666 64.1155 33.7109 64.1025 33.6573C61.607 23.3554 54.0751 15.0042 44.2353 11.3147C42.6026 9.22479 39.0725 13.302 38.9194 11.3148C35.5352 11.4026 35.3101 8.38539 34.745 9.32115C34.5854 9.31259 34.4279 9.30616 34.2661 9.29974C33.3085 8.5203 26.5156 13.7023 26.8823 8.83936C21.3369 9.44536 22.4687 9.32115 22.4687 9.32115C22.4687 9.32115 18.329 20.7094 18.0551 13.2362C9.53532 17.5167 11.6921 13.3276 12.5052 16.5246C7.6112 20.5289 3.94232 25.9421 2.10896 32.137C2.08308 32.2184 2.06151 32.3019 2.03778 32.3833C1.90837 32.8351 1.78758 33.289 1.67758 33.7494C1.64523 33.8822 1.61503 34.0149 1.58268 34.1498C1.48777 34.5653 1.40581 34.9828 1.32816 35.4025C1.29797 35.5653 1.26777 35.728 1.23973 35.8929C1.17287 36.2933 1.11463 36.698 1.06502 37.1049C1.0413 37.2805 1.01541 37.4539 0.996001 37.6316C0.950706 38.0492 0.918352 38.4711 0.888156 38.8929C0.875214 39.0535 0.860116 39.2162 0.851489 39.3768C0.819135 39.9593 0.80188 40.5439 0.80188 41.1327V41.137C0.80188 41.4967 0.816978 41.8501 0.827763 42.2055C0.834233 42.3961 0.832076 42.5867 0.842861 42.773C0.842861 42.7794 0.842861 42.7858 0.842861 42.7922C1.71425 59.6209 15.7341 73 32.8987 73C50.0633 73 64.9976 58.7323 64.9976 41.1306C64.9976 40.3554 64.9588 39.5888 64.9049 38.8286H64.907ZM6.1402 34.2719C6.14667 34.2591 6.15314 34.2462 6.15961 34.2355C8.05337 30.4689 10.9673 25.9421 14.7894 21.7601C14.7894 21.7601 16.8133 25.6338 38.9194 20.456C39.2214 20.3854 47.3585 26.0492 47.6648 25.9721C47.7273 25.9528 47.7942 25.9379 47.8589 25.9229C48.1372 25.8522 48.4175 25.7794 48.6958 25.7023C48.7972 25.6788 48.8985 25.6531 48.9999 25.6231C49.2587 25.5546 49.5197 25.4796 49.785 25.4047C49.9144 25.3704 50.046 25.3319 50.1754 25.2933C50.417 25.2248 50.665 25.152 50.9109 25.0792C51.0684 25.0299 51.2258 24.9807 51.3833 24.9336C51.6119 24.8629 51.8405 24.7944 52.0735 24.7194C52.259 24.6595 52.4509 24.5995 52.6408 24.5374C52.8457 24.471 53.0527 24.4047 53.2619 24.334C53.5014 24.2569 53.7386 24.1734 53.9802 24.0877C54.1463 24.0321 54.3124 23.9743 54.4806 23.9186C54.6273 23.8693 54.7761 23.8137 54.9228 23.7601C55.7488 24.8286 56.4951 25.9421 57.1444 27.107C57.25 27.3875 57.3579 27.6723 57.4593 27.9507C57.6404 28.4411 57.8173 28.925 57.9899 29.4025C58.8462 31.5803 59.5126 33.3961 60.0303 34.9143C60.2352 35.9143 60.4077 36.9229 60.5005 37.9507C60.5674 38.531 60.6126 39.1156 60.6428 39.7066C60.6428 39.7109 60.6428 39.7173 60.6428 39.7237C60.6515 39.9957 60.6838 40.2612 60.6838 40.5353C60.6838 40.6316 60.6774 40.7259 60.6752 40.8201C60.6752 40.9207 60.6838 41.0257 60.6838 41.1263C60.6838 41.3982 60.6515 41.6638 60.6428 41.9314V41.9443C60.5889 43.7815 60.3581 45.5824 59.9505 47.3383C59.9483 47.3469 59.9462 47.3554 59.944 47.3618C59.7542 48.1755 59.5342 48.9764 59.2754 49.7644C59.256 49.8265 59.2301 49.8865 59.2085 49.9486C58.9583 50.683 58.6887 51.4068 58.3759 52.1177C58.3177 52.2526 58.2465 52.3854 58.1861 52.5182C57.895 53.1498 57.5973 53.7794 57.2608 54.3897C57.1314 54.6209 56.9826 54.8436 56.8467 55.0728C56.5491 55.5803 56.2514 56.0877 55.9171 56.576C55.6755 56.9357 55.3994 57.2719 55.1384 57.6209C54.8753 57.97 54.6273 58.3254 54.3469 58.6638C53.7818 59.3447 53.1843 60.0042 52.5459 60.6359C47.2981 65.8458 40.3206 68.7152 32.8987 68.7152C25.4768 68.7152 18.4992 65.8458 13.2536 60.6359C12.6174 60.0042 12.0177 59.3447 11.4526 58.6616C11.1722 58.3254 10.9264 57.9678 10.6632 57.6209C10.4022 57.2719 10.1261 56.9357 9.88242 56.576C9.54594 56.0856 9.24829 55.5738 8.94201 55.0621C8.81044 54.8394 8.66593 54.6209 8.54083 54.3918C8.19788 53.7773 7.89592 53.1413 7.60473 52.5032C7.5465 52.3747 7.47963 52.2505 7.4214 52.1199C7.10865 51.4047 6.83257 50.6745 6.58452 49.9336C6.56511 49.8779 6.54138 49.8222 6.52413 49.7666C6.26314 48.9743 6.04098 48.1713 5.85118 47.3533C5.85118 47.3469 5.85118 47.3447 5.84686 47.3383C5.44999 45.6231 5.21921 43.8608 5.16097 42.0685C5.15666 42.0257 5.1545 41.9828 5.15234 41.94C5.14587 41.6659 5.11567 41.4004 5.11567 41.1263C5.11567 41.0257 5.12215 40.9207 5.1243 40.8201C5.1243 40.7259 5.11567 40.6316 5.11567 40.5353C5.11567 40.2655 5.14587 40 5.15234 39.7301C5.1847 39.1306 5.22783 38.5353 5.29685 37.9443C5.38529 36.9871 5.53843 36.0492 5.72176 35.1156C5.85549 34.8372 5.99138 34.5546 6.13804 34.2633L6.1402 34.2719Z" fill="black"/>
<path d="M32.9009 72.998C50.1129 72.998 64.1629 59.5461 64.9631 42.6489C63.4555 43.8138 61.8788 44.8995 60.246 45.9059C60.1619 46.3877 60.0648 46.8673 59.9548 47.3427C59.9527 47.3513 59.9505 47.3598 59.9483 47.3663C59.7585 48.18 59.5385 48.9808 59.2797 49.7688C59.2603 49.8309 59.2344 49.8909 59.2128 49.953C58.9626 50.6875 58.693 51.4112 58.3803 52.1222C58.322 52.2571 58.2509 52.3898 58.1905 52.5226C57.8993 53.1543 57.6016 53.7838 57.2652 54.3941C57.1358 54.6254 56.9869 54.8481 56.851 55.0772C56.5534 55.5847 56.2557 56.0922 55.9214 56.5804C55.6798 56.9401 55.4038 57.2763 55.1428 57.6254C54.8796 57.9744 54.6316 58.3299 54.3512 58.6682C53.7861 59.3491 53.1886 60.0087 52.5502 60.6404C47.3025 65.8502 40.3249 68.7196 32.903 68.7196C25.4811 68.7196 18.5036 65.8502 13.258 60.6404C12.6217 60.0087 12.0221 59.3491 11.457 58.6682C11.1766 58.332 10.9307 57.9744 10.6676 57.6275C10.4066 57.2785 10.1305 56.9423 9.88676 56.5825C9.71205 56.3277 9.54813 56.0686 9.38852 55.8052C7.46456 55.5397 5.62689 55.1971 3.8949 54.7881C9.04557 65.5568 20.0997 73.0044 32.9052 73.0044L32.9009 72.998Z" fill="black"/>
<path d="M54.4806 23.9209C54.3102 23.9766 54.1462 24.0344 53.9802 24.0901C53.7386 24.1757 53.5013 24.2593 53.2619 24.3363C53.0527 24.407 52.8456 24.4734 52.6407 24.5398C52.4509 24.6019 52.2589 24.6618 52.0735 24.7218C51.8405 24.7967 51.6119 24.8653 51.3832 24.9359C51.2258 24.983 51.0683 25.0301 50.9109 25.0815C50.665 25.1543 50.417 25.2271 50.1754 25.2957C50.046 25.3342 49.9144 25.3727 49.785 25.407C49.5197 25.482 49.2587 25.5569 48.9999 25.6254C48.8985 25.6554 48.7971 25.6811 48.6958 25.7047C48.4154 25.7796 48.135 25.8545 47.8589 25.9252C47.792 25.9402 47.7273 25.9552 47.6648 25.9745C47.3563 26.0515 41.6287 19.1823 41.3267 19.2529C19.2206 24.4307 14.7893 21.7625 14.7893 21.7625C10.9651 25.9445 8.05333 30.4734 6.15958 34.2378C6.15311 34.2485 6.14664 34.2614 6.14017 34.2742C5.9935 34.5655 5.85761 34.846 5.72389 35.1265C5.54055 36.0601 5.38957 36.998 5.29898 37.9552C5.22996 38.5441 5.18682 39.1393 5.15447 39.7389C5.14799 40.0109 5.1178 40.2742 5.1178 40.5441C5.1178 40.6404 5.12427 40.7325 5.12643 40.8289C5.12643 40.9295 5.1178 41.0344 5.1178 41.1351C5.1178 41.4092 5.14799 41.6768 5.15447 41.9488C5.15447 41.9916 5.15878 42.0323 5.16309 42.0772C5.22133 43.8695 5.45212 45.6318 5.84899 47.3471C5.85114 47.3513 5.8533 47.3556 5.8533 47.362C6.04095 48.18 6.26311 48.983 6.52625 49.7753C6.54566 49.831 6.56723 49.8867 6.58664 49.9423C6.83469 50.6832 7.11077 51.4134 7.42352 52.1286C7.48176 52.2593 7.54862 52.3835 7.60686 52.5119C7.9002 53.1501 8.2 53.786 8.54295 54.4006C8.66805 54.6297 8.81256 54.846 8.94413 55.0708C9.24826 55.5826 9.54591 56.0944 9.88454 56.5847C10.1283 56.9445 10.4044 57.2828 10.6653 57.6297C10.9285 57.9766 11.1744 58.3342 11.4548 58.6704C12.0199 59.3513 12.6195 60.0109 13.2558 60.6426C18.5013 65.8524 25.4789 68.7218 32.9008 68.7218C40.3227 68.7218 47.2981 65.8524 52.548 60.6426C53.1864 60.0109 53.7839 59.3513 54.349 58.6704C54.6294 58.3342 54.8774 57.9766 55.1406 57.6276C55.4015 57.2785 55.6776 56.9423 55.9192 56.5826C56.2557 56.0944 56.5512 55.5869 56.8488 55.0794C56.9847 54.8503 57.1335 54.6276 57.2629 54.3963C57.5994 53.786 57.8992 53.1565 58.1883 52.5248C58.2486 52.3899 58.322 52.2593 58.3781 52.1244C58.6887 51.4156 58.9604 50.6897 59.2106 49.9552C59.2322 49.8931 59.2581 49.8331 59.2775 49.771C59.5363 48.983 59.7563 48.1822 59.9461 47.3685C59.9483 47.362 59.9504 47.3535 59.9526 47.3449C60.3581 45.589 60.591 43.7882 60.645 41.9509V41.9381C60.6536 41.6704 60.6859 41.4049 60.6859 41.1329C60.6859 41.0323 60.6795 40.9274 60.6773 40.8267C60.6773 40.7325 60.6859 40.6383 60.6859 40.5419C60.6859 40.2678 60.6536 40.0044 60.645 39.7303C60.645 39.7239 60.645 39.7175 60.645 39.7132C60.6169 39.1222 60.5695 38.5376 60.5026 37.9573C60.4077 36.9295 60.2373 35.9209 60.0324 34.9209C59.5147 33.4049 58.8504 31.5869 57.992 29.4091C57.8194 28.9316 57.6404 28.4477 57.4614 27.9573C57.36 27.679 57.2522 27.3942 57.1465 27.1136C56.549 26.0408 55.8631 25.013 55.1147 24.0216C55.0392 23.9402 54.9615 23.861 54.8861 23.7817C54.7523 23.831 54.6186 23.8802 54.4849 23.9252L54.4806 23.9209Z" fill="#F3D8CA"/>
<path d="M24.3444 44.7021C26.9651 44.7021 29.0896 42.593 29.0896 39.9912C29.0896 37.3894 26.9651 35.2803 24.3444 35.2803C21.7237 35.2803 19.5992 37.3894 19.5992 39.9912C19.5992 42.593 21.7237 44.7021 24.3444 44.7021Z" fill="black"/>
<path d="M41.4551 44.7021C44.0758 44.7021 46.2003 42.593 46.2003 39.9912C46.2003 37.3894 44.0758 35.2803 41.4551 35.2803C38.8344 35.2803 36.71 37.3894 36.71 39.9912C36.71 42.593 38.8344 44.7021 41.4551 44.7021Z" fill="black"/>
<path d="M32.9009 59.3725C28.7143 59.3725 25.0864 56.5588 24.077 52.5289C23.8333 51.5524 24.4307 50.5653 25.4143 50.3233C26.3957 50.0813 27.3922 50.6745 27.6359 51.6509C28.2377 54.0535 30.401 55.7323 32.9009 55.7323C35.4007 55.7323 37.5641 54.0535 38.1659 51.6509C38.4096 50.6745 39.4039 50.0792 40.3875 50.3233C41.371 50.5653 41.9685 51.5524 41.7248 52.5289C40.7175 56.5588 37.0896 59.3725 32.9009 59.3725Z" fill="black"/>
</g>
<path d="M39.425 22.6277C39.425 22.6277 34.9708 29.4358 31.9415 29.7968C28.9122 30.1521 30.3371 27.1062 31.0496 26.215C31.0496 26.215 10.3651 43.1512 2.3487 42.7056C2.3487 42.7056 0.751011 32.1263 4.67226 26.215C4.67226 26.215 -0.494366 23.705 0.0385654 21.3755C0.571497 19.0459 1.11004 22.9886 11.0899 15.4585C21.0641 7.92845 34.8391 6.41523 44.2326 10.258C44.2326 10.258 60.9891 14.7366 64.1979 33.9143C64.1979 33.9143 55.1044 42.3356 39.425 22.622V22.6277Z" fill="black"/>
<defs>
<clipPath id="clip0_1562_21615">
<rect width="64.1979" height="73" fill="white" transform="translate(0.80188)"/>
</clipPath>
</defs>
</svg>
