<svg width="96" height="96" viewBox="0 0 96 96" fill="none" xmlns="http://www.w3.org/2000/svg">
<path d="M9.41858 7C4.21684 7 0 11.2189 0 16.4232V71.9157C0 77.12 4.21685 81.3389 9.41859 81.3389H32.3488L43.5987 94.6631C45.1038 96.4456 47.8497 96.4456 49.3548 94.6631L60.6047 81.3389H80.5814C85.7832 81.3389 90 77.12 90 71.9157V16.4232C90 11.2189 85.7831 7 80.5814 7H9.41858Z" fill="#DEDEDE"/>
<path d="M8.99998 6C4.02943 6 0 10.0294 0 15V68C0 72.9706 4.02943 77 8.99998 77H28L38.7499 89.7257C40.1881 91.4282 42.8119 91.4282 44.2501 89.7257L56 77H77C81.9706 77 86 72.9706 86 68V15C86 10.0294 81.9706 6 77 6H8.99998Z" fill="#ECECEC"/>
<path d="M43.0113 42.4294C47.8431 42.4294 52.0428 38.3715 52.0428 33.0879C52.0428 27.8676 47.8431 24 43.0113 24C38.1794 24 33.9798 27.9522 33.9798 33.1301C33.9798 38.3715 38.1569 42.4294 43.0113 42.4294ZM28.8093 62H57.1682C60.7356 62 62 61.0489 62 59.1891C62 53.7364 54.7071 46.2125 42.9887 46.2125C31.2929 46.2125 24 53.7364 24 59.1891C24 61.0489 25.2644 62 28.8093 62Z" fill="#999999"/>
<path d="M88 15.9994C92.4183 15.9994 96 12.4178 96 7.99968C96 3.58158 92.4183 0 88 0C83.5817 0 80 3.58158 80 7.99968C80 12.4178 83.5817 15.9994 88 15.9994Z" fill="#666666"/>
<path d="M86 5.99805L90 9.99789" stroke="white" stroke-width="1.56248" stroke-linecap="round"/>
<path d="M86 9.99789L90 5.99805" stroke="white" stroke-width="1.56248" stroke-linecap="round"/>
</svg>
