<svg width="67" height="84" viewBox="0 0 67 84" fill="none" xmlns="http://www.w3.org/2000/svg">
<g clip-path="url(#clip0_2101_22826)">
<path d="M66.6362 0C64.8439 0 63.3906 1.45485 63.3906 3.24984V33.2763C63.3906 35.6317 61.4834 37.5418 59.1317 37.5418H37.9792V4.0298C37.9792 1.80442 39.7809 0 42.0029 0H66.6362Z" fill="#F2F2F2"/>
<path d="M59.1317 37.542H48.3823V19.4527C48.3823 17.6577 49.8356 16.2021 51.6279 16.2021C52.5243 16.2021 53.3353 16.5659 53.9224 17.1539C54.5095 17.7419 54.8727 18.5548 54.8727 19.452V33.2757C54.8727 35.6318 56.7793 37.542 59.1317 37.542Z" fill="#DEDEDE"/>
<path d="M51.6271 16.2021C49.8349 16.2021 48.3816 17.6577 48.3816 19.4527V79.9703C48.3816 81.083 47.931 82.0906 47.2034 82.8201C46.4757 83.5495 45.4697 84.0001 44.358 84.0001H13.1301C10.9081 84.0001 9.10645 82.1964 9.10645 79.9703V20.2319C9.10645 18.0066 10.9081 16.2021 13.1301 16.2021H51.6271Z" fill="#F2F2F2"/>
<path d="M44.3587 83.9999H4.02362C1.80165 83.9999 0 82.1954 0 79.9701V77.4995H40.335V79.9701C40.335 82.1961 42.136 83.9999 44.3587 83.9999Z" fill="#DEDEDE"/>
<path d="M37.98 16.3198H51.6272" stroke="#DEDEDE" stroke-width="5" stroke-miterlimit="10"/>
<path d="M66.5515 76.1895C65.9536 76.7883 64.9845 76.7883 64.3873 76.1895L55.096 66.8839L53.915 65.7011C54.7745 65.1327 55.5116 64.3945 56.0792 63.5337L66.5515 74.0221C67.1493 74.6208 67.1493 75.5908 66.5515 76.1895Z" fill="#9C9C9C"/>
<path d="M56.5506 64.0044L58.9716 66.4298C58.4047 67.2906 57.6676 68.0288 56.8082 68.5973L55.5674 67.3546L54.3865 66.1718C55.2459 65.6034 55.983 64.8652 56.5506 64.0044Z" fill="#5E5E5E"/>
<path d="M58.9628 58.955C58.9467 58.5623 58.9057 58.1764 58.8411 57.7978C58.4773 55.6466 57.3717 53.7478 55.7967 52.3765C54.1759 50.9641 52.0589 50.1094 49.7414 50.1094C44.6438 50.1094 40.5112 54.2483 40.5112 59.3537C40.5112 59.7073 40.5314 60.0562 40.5697 60.3991C40.6908 61.4747 40.9954 62.4944 41.4527 63.4253C42.1091 64.7643 43.0802 65.9201 44.2685 66.7977C44.4615 66.9405 44.6606 67.0759 44.865 67.2032C46.28 68.0869 47.9512 68.5974 49.7414 68.5974C51.7374 68.5974 53.5861 67.9629 55.0959 66.8839C55.9318 66.2872 56.6635 65.5537 57.2601 64.7171C57.8593 63.8759 58.3213 62.9302 58.6131 61.9125C58.8458 61.1002 58.9709 60.2421 58.9709 59.3544C58.9709 59.221 58.9682 59.0877 58.9622 58.9557L58.9628 58.955ZM49.7414 66.9533C48.081 66.9533 46.5456 66.4192 45.2961 65.5133C44.0836 64.6343 43.1407 63.4044 42.6155 61.9718C42.3169 61.1555 42.1535 60.2738 42.1535 59.3537C42.1535 59.0075 42.1764 58.6667 42.2214 58.3333C42.5987 55.5152 44.5187 53.1861 47.1025 52.2263C47.9243 51.9212 48.8133 51.7542 49.7414 51.7542C50.077 51.7542 50.4072 51.7757 50.7313 51.8188C52.2694 52.0189 53.6635 52.6816 54.7691 53.6623C56.3394 55.0545 57.3293 57.0886 57.3293 59.3544C57.3293 59.4702 57.3266 59.5854 57.3212 59.6999C57.2964 60.2576 57.2116 60.7998 57.0731 61.3205C56.8606 62.1179 56.5216 62.8635 56.0798 63.5351C55.5122 64.3959 54.7751 65.1347 53.9157 65.7025C53.7045 65.8419 53.4866 65.9706 53.2613 66.0891C52.7811 66.3417 52.27 66.5438 51.7354 66.6893C51.0999 66.8624 50.4314 66.9546 49.7414 66.9546V66.9533Z" fill="#B8B8B8"/>
<path d="M43.9954 60.1887C43.604 60.1887 43.2866 59.8708 43.2866 59.4788C43.2866 57.7181 43.9712 56.0633 45.214 54.8186C46.4568 53.5739 48.1092 52.8882 49.8671 52.8882C50.2585 52.8882 50.5759 53.2061 50.5759 53.5981C50.5759 53.9901 50.2585 54.308 49.8671 54.308C48.4878 54.308 47.1912 54.8462 46.2161 55.8228C45.2409 56.7994 44.7036 58.098 44.7036 59.4795C44.7036 59.8715 44.3862 60.1894 43.9948 60.1894L43.9954 60.1887Z" fill="white"/>
</g>
<defs>
<clipPath id="clip0_2101_22826">
<rect width="67" height="84" fill="white"/>
</clipPath>
</defs>
</svg>
