<svg width="96" height="96" viewBox="0 0 96 96" fill="none" xmlns="http://www.w3.org/2000/svg">
<path d="M94.3749 94.3749C92.2081 96.5416 88.6959 96.5416 86.5316 94.3749L52.8578 60.701L48.5779 56.4211C51.6928 54.364 54.364 51.6928 56.4211 48.5779L94.3749 86.5316C96.5416 88.6984 96.5416 92.2081 94.3749 94.3749Z" fill="#9C9C9C"/>
<path d="M58.1297 50.2815L66.904 59.0582C64.8493 62.1731 62.178 64.8444 59.0632 66.9015L54.5663 62.4046L50.2864 58.1247C53.4013 56.0677 56.0726 53.3964 58.1297 50.2815Z" fill="#5E5E5E"/>
<path d="M66.8724 32.0091C66.8139 30.5882 66.6652 29.1916 66.4312 27.8218C65.1126 20.0371 61.1057 13.1663 55.3975 8.20398C49.5236 3.09295 41.851 0 33.452 0C14.9772 0 0 14.9772 0 33.452C0 34.7316 0.073118 35.9941 0.212044 37.2347C0.65076 41.1271 1.75486 44.8172 3.41223 48.1855C5.79104 53.0309 9.31051 57.2133 13.6172 60.3891C14.3167 60.9058 15.0382 61.3957 15.7791 61.8564C20.9072 65.0541 26.9639 66.9016 33.452 66.9016C40.686 66.9016 47.3861 64.6057 52.8579 60.7011C55.8874 58.5417 58.5392 55.8874 60.7011 52.8603C62.8728 49.8161 64.5472 46.3941 65.605 42.7114C66.4483 39.772 66.9016 36.6668 66.9016 33.4545C66.9016 32.9719 66.8919 32.4893 66.8699 32.0116L66.8724 32.0091ZM33.452 60.9521C27.4343 60.9521 21.8699 59.0194 17.3414 55.7412C12.947 52.5605 9.52986 48.11 7.62633 42.9258C6.54416 39.9718 5.9519 36.7814 5.9519 33.452C5.9519 32.1992 6.03477 30.966 6.19807 29.7595C7.5654 19.5618 14.5239 11.1336 23.888 7.66046C26.8664 6.55636 30.0886 5.95191 33.452 5.95191C34.6683 5.95191 35.865 6.02989 37.0397 6.18588C42.6139 6.90976 47.6664 9.30807 51.6733 12.8568C57.3645 17.8947 60.9522 25.2554 60.9522 33.4545C60.9522 33.8737 60.9424 34.2905 60.9229 34.7048C60.8327 36.7229 60.5256 38.6849 60.0235 40.569C59.2534 43.4547 58.025 46.1528 56.4236 48.5828C54.3666 51.6977 51.6953 54.3714 48.5804 56.4261C47.8151 56.9306 47.0254 57.3961 46.2089 57.8251C44.4687 58.7391 42.6163 59.4703 40.6786 59.9967C38.3754 60.6231 35.9527 60.957 33.452 60.957V60.9521Z" fill="#B8B8B8"/>
<path d="M12.6277 36.4744C11.2092 36.4744 10.0588 35.324 10.0588 33.9054C10.0588 27.5343 12.54 21.5459 17.0441 17.0417C21.5482 12.5376 27.5367 10.0564 33.9078 10.0564C35.3263 10.0564 36.4767 11.2068 36.4767 12.6253C36.4767 14.0438 35.3263 15.1942 33.9078 15.1942C28.9089 15.1942 24.2098 17.1416 20.6757 20.6757C17.1416 24.2098 15.1942 28.909 15.1942 33.9079C15.1942 35.3264 14.0438 36.4768 12.6253 36.4768L12.6277 36.4744Z" fill="white"/>
</svg>
