<svg width="40" height="40" viewBox="0 0 40 40" fill="none" xmlns="http://www.w3.org/2000/svg">
<circle cx="20" cy="20" r="20" fill="#F3F3F3"/>
<path d="M20.0018 22.8C19.2384 22.8 18.5062 22.505 17.9664 21.9799C17.4265 21.4548 17.1233 20.7426 17.1233 20C17.1233 19.2574 17.4265 18.5452 17.9664 18.0201C18.5062 17.495 19.2384 17.2 20.0018 17.2C20.7653 17.2 21.4974 17.495 22.0373 18.0201C22.5771 18.5452 22.8804 19.2574 22.8804 20C22.8804 20.7426 22.5771 21.4548 22.0373 21.9799C21.4974 22.505 20.7653 22.8 20.0018 22.8ZM26.1126 20.776C26.1455 20.52 26.1701 20.264 26.1701 20C26.1701 19.736 26.1455 19.472 26.1126 19.2L27.8479 17.896C28.0042 17.776 28.0453 17.56 27.9466 17.384L26.3017 14.616C26.203 14.44 25.981 14.368 25.8 14.44L23.7522 15.24C23.3245 14.928 22.8804 14.656 22.3622 14.456L22.0579 12.336C22.025 12.144 21.8523 12 21.6467 12H18.3569C18.1513 12 17.9786 12.144 17.9457 12.336L17.6414 14.456C17.1233 14.656 16.6791 14.928 16.2515 15.24L14.2036 14.44C14.0227 14.368 13.8006 14.44 13.7019 14.616L12.057 17.384C11.9501 17.56 11.9995 17.776 12.1557 17.896L13.8911 19.2C13.8582 19.472 13.8335 19.736 13.8335 20C13.8335 20.264 13.8582 20.52 13.8911 20.776L12.1557 22.104C11.9995 22.224 11.9501 22.44 12.057 22.616L13.7019 25.384C13.8006 25.56 14.0227 25.624 14.2036 25.56L16.2515 24.752C16.6791 25.072 17.1233 25.344 17.6414 25.544L17.9457 27.664C17.9786 27.856 18.1513 28 18.3569 28H21.6467C21.8523 28 22.025 27.856 22.0579 27.664L22.3622 25.544C22.8804 25.336 23.3245 25.072 23.7522 24.752L25.8 25.56C25.981 25.624 26.203 25.56 26.3017 25.384L27.9466 22.616C28.0453 22.44 28.0042 22.224 27.8479 22.104L26.1126 20.776Z" fill="black"/>
</svg>
