<svg width="48" height="48" viewBox="0 0 48 48" fill="none" xmlns="http://www.w3.org/2000/svg">
<circle opacity="0.1" cx="24" cy="24" r="24" fill="#191919"/>
<path d="M30.2037 13.8544L30.2037 21.6615C30.2037 22.131 30.7109 22.4254 31.1186 22.1924L37.9498 18.2889C38.3606 18.0541 38.3606 17.4618 37.9498 17.2271L31.1186 13.3235C30.7109 13.0905 30.2037 13.3849 30.2037 13.8544Z" fill="#191919"/>
<path fill-rule="evenodd" clip-rule="evenodd" d="M23.0548 19.3783C23.6849 18.8335 24.3682 18.3792 25.0337 18.0058C27.0235 16.8893 29.245 16.2679 30.7156 16.0255C31.6874 15.8653 32.6051 16.5233 32.7653 17.4952C32.9255 18.467 32.2675 19.3847 31.2956 19.5449C30.1372 19.7358 28.3303 20.2461 26.779 21.1165C26.0287 21.5374 25.4198 21.9946 24.9642 22.4795C24.551 21.2528 23.8598 20.2272 23.0548 19.3783ZM21.2077 28.6467C20.6491 29.0954 20.0581 29.4774 19.4808 29.7988C17.4806 30.9124 15.247 31.5308 13.769 31.7712C12.7968 31.9294 11.8805 31.2694 11.7223 30.2972C11.5642 29.3251 12.2241 28.4087 13.1963 28.2506C14.364 28.0607 16.1839 27.5519 17.7457 26.6823C18.4197 26.3071 18.9796 25.9033 19.4175 25.4771C19.7803 26.7256 20.4305 27.7742 21.2077 28.6467Z" fill="#191919"/>
<path d="M31.0261 30.2422C28.3804 29.8119 22.9191 27.9877 22.2395 24.1338C21.56 20.2799 16.1321 18.4498 13.5031 18.0165" stroke="#191919" stroke-width="3.56688" stroke-linecap="round" stroke-linejoin="round"/>
<path d="M30.2037 26.3385L30.2037 34.1456C30.2037 34.6151 30.7109 34.9094 31.1186 34.6765L37.9498 30.7729C38.3606 30.5382 38.3606 29.9459 37.9498 29.7111L31.1186 25.8076C30.7109 25.5746 30.2037 25.869 30.2037 26.3385Z" fill="#191919"/>
</svg>
