<svg width="49" height="48" viewBox="0 0 49 48" fill="none" xmlns="http://www.w3.org/2000/svg">
<circle opacity="0.1" cx="24.8242" cy="24" r="24" fill="white"/>
<path d="M31.028 13.8544L31.028 21.6616C31.028 22.1311 31.5352 22.4254 31.9428 22.1925L38.774 18.2889C39.1848 18.0542 39.1848 17.4619 38.7741 17.2271L31.9428 13.3235C31.5352 13.0906 31.028 13.3849 31.028 13.8544Z" fill="white"/>
<path fill-rule="evenodd" clip-rule="evenodd" d="M23.879 19.3783C24.5092 18.8335 25.1924 18.3791 25.8579 18.0057C27.8477 16.8893 30.0692 16.2679 31.5398 16.0255C32.5116 15.8653 33.4293 16.5233 33.5895 17.4952C33.7497 18.467 33.0917 19.3847 32.1198 19.5449C30.9615 19.7358 29.1545 20.246 27.6033 21.1164C26.853 21.5374 26.244 21.9945 25.7884 22.4794C25.3752 21.2528 24.6841 20.2272 23.879 19.3783ZM22.0319 28.6467C21.4733 29.0954 20.8823 29.4773 20.305 29.7987C18.3048 30.9124 16.0712 31.5308 14.5932 31.7712C13.621 31.9293 12.7047 31.2694 12.5466 30.2972C12.3884 29.325 13.0484 28.4087 14.0205 28.2506C15.1882 28.0607 17.0082 27.5518 18.5699 26.6823C19.2439 26.307 19.8039 25.9032 20.2417 25.4771C20.6045 26.7256 21.2547 27.7741 22.0319 28.6467Z" fill="white"/>
<path d="M31.8503 30.2423C29.2046 29.812 23.7433 27.9878 23.0637 24.1339C22.3842 20.28 16.9563 18.4499 14.3274 18.0166" stroke="white" stroke-width="3.56688" stroke-linecap="round" stroke-linejoin="round"/>
<path d="M31.028 26.3386L31.028 34.1457C31.028 34.6152 31.5352 34.9096 31.9428 34.6766L38.774 30.773C39.1848 30.5383 39.1848 29.946 38.7741 29.7112L31.9428 25.8077C31.5352 25.5747 31.028 25.8691 31.028 26.3386Z" fill="white"/>
</svg>
