<svg width="199" height="82" viewBox="0 0 199 82" fill="none" xmlns="http://www.w3.org/2000/svg">
<path d="M36.5893 39.5003C40.1242 36.1217 45.9264 36.1895 49.4614 39.5681C52.9963 42.9466 52.7655 48.2035 49.2305 51.582L36.4719 63.7899L23.7134 75.9978L11.0721 63.916L36.5893 39.5003Z" fill="url(#paint0_linear_2726_24127)"/>
<path d="M2.65508 55.8736C-0.88503 52.4897 -0.885024 47.0034 2.65508 43.6195C6.19619 40.2347 11.9378 40.2358 15.4775 43.622L36.5159 63.7479L23.711 76L2.65508 55.8736Z" fill="url(#paint1_linear_2726_24127)"/>
<path d="M29.3835 46.395L23.8751 51.6657L36.5159 63.7479L29.3835 46.395Z" fill="#A534DE"/>
<path d="M82.4453 47.792C82.4453 51.016 81.4399 53.5293 79.4293 55.332C77.4186 57.1 74.4373 57.984 70.4853 57.984H62.6853V74H60.3453V37.496H70.4853C74.5066 37.496 77.5053 38.432 79.4813 40.304C81.4573 42.1413 82.4453 44.6373 82.4453 47.792ZM70.4853 55.904C76.8986 55.904 80.1053 53.2 80.1053 47.792C80.1053 45.1227 79.3426 43.0947 77.8173 41.708C76.2919 40.2867 73.8479 39.576 70.4853 39.576H62.6853V55.904H70.4853ZM106.308 74.416C102.945 74.416 99.912 73.636 97.208 72.076C94.504 70.4813 92.3893 68.2627 90.864 65.42C89.3386 62.5773 88.576 59.3707 88.576 55.8C88.576 52.1947 89.3386 48.988 90.864 46.18C92.3893 43.3373 94.504 41.136 97.208 39.576C99.912 37.9813 102.945 37.184 106.308 37.184C109.671 37.184 112.704 37.9813 115.408 39.576C118.112 41.136 120.227 43.3373 121.752 46.18C123.277 48.988 124.04 52.1947 124.04 55.8C124.04 59.3707 123.277 62.5773 121.752 65.42C120.227 68.2627 118.112 70.4813 115.408 72.076C112.704 73.636 109.671 74.416 106.308 74.416ZM106.308 72.336C109.185 72.336 111.785 71.66 114.108 70.308C116.431 68.956 118.251 67.032 119.568 64.536C120.92 62.04 121.596 59.128 121.596 55.8C121.596 52.4373 120.92 49.508 119.568 47.012C118.251 44.516 116.431 42.592 114.108 41.24C111.785 39.888 109.185 39.212 106.308 39.212C103.431 39.212 100.831 39.888 98.508 41.24C96.1853 42.592 94.348 44.516 92.996 47.012C91.644 49.508 90.968 52.4373 90.968 55.8C90.968 59.128 91.644 62.04 92.996 64.536C94.348 67.032 96.1853 68.956 98.508 70.308C100.831 71.66 103.431 72.336 106.308 72.336ZM154.514 47.792C154.514 51.016 153.509 53.5293 151.498 55.332C149.487 57.1 146.506 57.984 142.554 57.984H134.754V74H132.414V37.496H142.554C146.575 37.496 149.574 38.432 151.55 40.304C153.526 42.1413 154.514 44.6373 154.514 47.792ZM142.554 55.904C148.967 55.904 152.174 53.2 152.174 47.792C152.174 45.1227 151.411 43.0947 149.886 41.708C148.361 40.2867 145.917 39.576 142.554 39.576H134.754V55.904H142.554ZM178.377 74.416C175.014 74.416 171.981 73.636 169.277 72.076C166.573 70.4813 164.458 68.2627 162.933 65.42C161.407 62.5773 160.645 59.3707 160.645 55.8C160.645 52.1947 161.407 48.988 162.933 46.18C164.458 43.3373 166.573 41.136 169.277 39.576C171.981 37.9813 175.014 37.184 178.377 37.184C181.739 37.184 184.773 37.9813 187.477 39.576C190.181 41.136 192.295 43.3373 193.821 46.18C195.346 48.988 196.109 52.1947 196.109 55.8C196.109 59.3707 195.346 62.5773 193.821 65.42C192.295 68.2627 190.181 70.4813 187.477 72.076C184.773 73.636 181.739 74.416 178.377 74.416ZM178.377 72.336C181.254 72.336 183.854 71.66 186.177 70.308C188.499 68.956 190.319 67.032 191.637 64.536C192.989 62.04 193.665 59.128 193.665 55.8C193.665 52.4373 192.989 49.508 191.637 47.012C190.319 44.516 188.499 42.592 186.177 41.24C183.854 39.888 181.254 39.212 178.377 39.212C175.499 39.212 172.899 39.888 170.577 41.24C168.254 42.592 166.417 44.516 165.065 47.012C163.713 49.508 163.037 52.4373 163.037 55.8C163.037 59.128 163.713 62.04 165.065 64.536C166.417 67.032 168.254 68.956 170.577 70.308C172.899 71.66 175.499 72.336 178.377 72.336Z" fill="url(#paint2_linear_2726_24127)"/>
<path d="M32.0312 8.39062V18.6562H30.8125V8.39062H32.0312ZM20.8438 16C22.9297 15.3203 24.3906 13.5781 24.3906 11.625V11.25H21.1875V10.2656H24.3906V8.45312H25.625V10.2656H28.7969V11.25H25.6094V11.625C25.6016 13.4609 27.0938 15.1016 29.1719 15.7344L28.5625 16.7188C26.9297 16.1875 25.6406 15.0859 25.0156 13.6484C24.4062 15.1953 23.1172 16.3984 21.4688 16.9688L20.8438 16ZM23.0625 21.9688V17.7031H24.2812V20.9375H32.4688V21.9688H23.0625ZM44.975 9.28125V10.5C44.975 11.8125 44.975 13.2578 44.5766 15.25H46.6469V16.2656H40.9125V22.2969H39.6781V16.2656H33.9906V15.25H43.3344C43.7563 13.25 43.7563 11.7969 43.7563 10.5V10.2969H35.5844V9.28125H44.975ZM51.9656 9.39062C54.1453 9.39844 55.6922 10.7266 55.7 12.6562C55.6922 14.5938 54.1453 15.9141 51.9656 15.9219C49.7703 15.9141 48.2078 14.5938 48.2156 12.6562C48.2078 10.7266 49.7703 9.39844 51.9656 9.39062ZM47.4969 18.1875C50.0594 18.1953 53.5984 18.1719 56.6688 17.7188L56.7625 18.625C53.5828 19.2188 50.1688 19.2344 47.6688 19.2344L47.4969 18.1875ZM49.4188 12.6562C49.4109 13.9531 50.4813 14.8438 51.9656 14.8438C53.4344 14.8438 54.5047 13.9531 54.4969 12.6562C54.5047 11.3672 53.4344 10.4688 51.9656 10.4688C50.4813 10.4688 49.4109 11.3672 49.4188 12.6562ZM57.5906 22.2969V8.375H58.8094V22.2969H57.5906ZM77.1656 15.3594V16.375H64.4625V15.3594H70.1813V13.2188H71.3844V15.3594H77.1656ZM65.2281 12.9844C67.6813 12.6484 70.1656 11.1016 70.1656 9.25V8.59375H71.4V9.25C71.4 11.1016 73.9 12.6484 76.3531 12.9844L75.8531 13.9688C73.7516 13.6016 71.6578 12.4844 70.7906 10.8828C69.9156 12.5 67.8297 13.6016 65.6969 13.9688L65.2281 12.9844ZM65.8688 18.7188V17.7344H75.5563V22.2656H74.3219V18.7188H65.8688ZM84.875 9.78125V18.7344H78.4688V9.78125H84.875ZM79.6562 17.7344H83.6562V10.7656H79.6562V17.7344ZM87.4219 22.2656V8.375H88.6406V13.9219H90.9688V14.9844H88.6406V22.2656H87.4219ZM97.6469 8.6875C100.67 8.6875 102.545 9.66406 102.553 11.3281C102.545 12.9688 100.67 13.9297 97.6469 13.9219C94.6234 13.9297 92.725 12.9688 92.725 11.3281C92.725 9.66406 94.6234 8.6875 97.6469 8.6875ZM91.3187 16.1406V15.125H103.975V16.1406H91.3187ZM92.8656 22.0781V17.5156H102.428V22.0781H92.8656ZM93.9906 11.3281C93.9828 12.3359 95.3969 12.9453 97.6469 12.9531C99.8734 12.9453 101.295 12.3359 101.303 11.3281C101.295 10.2891 99.8734 9.67188 97.6469 9.67188C95.3969 9.67188 93.9828 10.2891 93.9906 11.3281ZM94.0844 21.0781H101.225V18.5H94.0844V21.0781ZM116.2 8.375V22.2969H114.966V8.375H116.2ZM105.262 14.2969C105.27 11.3438 106.739 9.46094 108.809 9.45312C110.872 9.46094 112.364 11.3438 112.356 14.2969C112.364 17.2578 110.872 19.1328 108.809 19.125C106.739 19.1328 105.27 17.2578 105.262 14.2969ZM106.45 14.2969C106.45 16.5547 107.419 18.0391 108.809 18.0312C110.208 18.0391 111.169 16.5547 111.169 14.2969C111.169 12.0391 110.208 10.5547 108.809 10.5469C107.419 10.5547 106.45 12.0391 106.45 14.2969ZM132.838 8.98438V9.96875C132.838 11.0156 132.838 12.2969 132.486 13.9531H134.509V14.9531H128.713V17.1406C131.369 17.25 132.955 18.1562 132.963 19.6719C132.955 21.3203 131.127 22.2344 128.119 22.2344C125.072 22.2344 123.252 21.3203 123.244 19.6719C123.252 18.1562 124.83 17.2578 127.509 17.1406V14.9531H121.791V13.9531H131.252C131.627 12.2656 131.627 11.0469 131.619 9.98438H123.4V8.98438H132.838ZM124.494 19.6719C124.478 20.6719 125.845 21.2422 128.119 21.25C130.345 21.2422 131.713 20.6719 131.728 19.6719C131.713 18.6875 130.345 18.125 128.119 18.1094C125.845 18.125 124.478 18.6875 124.494 19.6719ZM146.266 9.125V10.1562C146.266 11.2344 146.266 12.5 145.898 14.2344H147.938V15.25H135.219V14.2344H144.664C145.055 12.4844 145.055 11.2344 145.047 10.1562V10.1406H136.828V9.125H146.266ZM136.781 22.0781V17.1719H146.328V22.0781H136.781ZM138 21.0781H145.109V18.1406H138V21.0781ZM159.506 8.32812V11.7031H161.616V12.7188H159.506V16.0156H158.288V8.32812H159.506ZM148.678 10.625V9.64062H152.209V8.23438H153.428V9.64062H156.959V10.625H148.678ZM149.475 13.5312C149.467 12.125 150.795 11.2578 152.819 11.25C154.834 11.2578 156.147 12.125 156.163 13.5312C156.147 14.9453 154.834 15.8047 152.819 15.8125C150.795 15.8047 149.467 14.9453 149.475 13.5312ZM150.647 17.6562V16.7344H159.506V19.8125H151.881V21.1719H160.022V22.1094H150.678V18.9062H158.288V17.6562H150.647ZM150.647 13.5312C150.639 14.3672 151.498 14.8906 152.819 14.8906C154.131 14.8906 154.991 14.3672 155.006 13.5312C154.991 12.7031 154.131 12.1641 152.819 12.1562C151.498 12.1641 150.639 12.7031 150.647 13.5312ZM174.925 8.65625V12.4531H176.534V8.375H177.706V18.7031H176.534V13.4531H174.925V18.25H173.769V8.65625H174.925ZM166.128 16.1094V9.73438H169.05V10.7344H167.269V15.0859C167.792 15.0703 168.472 15.0078 169.206 14.8281L169.331 15.8438C168.159 16.1016 167.253 16.1016 166.659 16.1094H166.128ZM168.316 21.9688V17.5H169.55V20.9375H178.097V21.9688H168.316ZM169.753 16.1094V9.73438H172.8V10.7344H170.909V15.0938C171.511 15.0781 172.23 15.0156 173.034 14.8125L173.175 15.8438C172.003 16.1016 171.073 16.1016 170.331 16.1094H169.753Z" fill="#BF31F7"/>
<defs>
<linearGradient id="paint0_linear_2726_24127" x1="26" y1="37" x2="26" y2="76" gradientUnits="userSpaceOnUse">
<stop stop-color="#F86AE1"/>
<stop offset="0.578125" stop-color="#B224FB"/>
</linearGradient>
<linearGradient id="paint1_linear_2726_24127" x1="26" y1="37" x2="26" y2="76" gradientUnits="userSpaceOnUse">
<stop stop-color="#B224FB"/>
<stop offset="1" stop-color="#F86AE1"/>
</linearGradient>
<linearGradient id="paint2_linear_2726_24127" x1="127.5" y1="30" x2="127.5" y2="82" gradientUnits="userSpaceOnUse">
<stop stop-color="#B224FB"/>
<stop offset="1" stop-color="#F86AE1"/>
</linearGradient>
</defs>
</svg>
