<svg fill="none" height="64" viewBox="0 0 65 64" width="65" xmlns="http://www.w3.org/2000/svg"><path d="m32.17 60.7499c12.9345 0 23.42-10.4855 23.42-23.42s-10.4855-23.42-23.42-23.42-23.42 10.4855-23.42 23.42 10.4855 23.42 23.42 23.42z" fill="#f4f2fa" stroke="#494752" stroke-width="3.5"/><path d="m31.9708 20.2838c0-.126-.1031-.2283-.2291-.2267-9.4328.1227-17.0417 7.8075-17.0417 17.2694 0 9.5384 7.7324 17.2708 17.2708 17.2708 9.4618 0 17.1464-7.6086 17.2694-17.0411.0016-.126-.1007-.2291-.2267-.2291h-16.8146c-.126 0-.2281-.1022-.2281-.2281z" fill="#8786e2"/><g fill="#494752"><rect height="7" rx="1.4" width="7" x="28.7" y="7.8999"/><path d="m23.8 5.1c0-1.1598.9403-2.1 2.1-2.1h12.6c1.1598 0 2.1.9402 2.1 2.1v2.1c0 1.1598-.9402 2.1-2.1 2.1h-12.6c-1.1597 0-2.1-.9402-2.1-2.1z"/></g></svg>