<svg width="65" height="64" viewBox="0 0 65 64" fill="none" xmlns="http://www.w3.org/2000/svg">
<path d="M32.17 60.7499C45.1045 60.7499 55.59 50.2644 55.59 37.3299C55.59 24.3954 45.1045 13.9099 32.17 13.9099C19.2355 13.9099 8.75 24.3954 8.75 37.3299C8.75 50.2644 19.2355 60.7499 32.17 60.7499Z" fill="#F4F2FA" stroke="#494752" stroke-width="3.5"/>
<path d="M31.9708 20.2838C31.9708 20.1578 31.8677 20.0555 31.7417 20.0571C22.3089 20.1798 14.7 27.8646 14.7 37.3265C14.7 46.8649 22.4324 54.5973 31.9708 54.5973C41.4326 54.5973 49.1172 46.9887 49.2402 37.5562C49.2418 37.4302 49.1395 37.3271 49.0135 37.3271H32.1989C32.0729 37.3271 31.9708 37.2249 31.9708 37.099V20.2838Z" fill="#8786E2"/>
<rect x="28.7" y="7.8999" width="7" height="7" rx="1.4" fill="#494752"/>
<path d="M23.8 5.1C23.8 3.9402 24.7403 3 25.9 3H38.5C39.6598 3 40.6 3.9402 40.6 5.1V7.2C40.6 8.3598 39.6598 9.3 38.5 9.3H25.9C24.7403 9.3 23.8 8.3598 23.8 7.2V5.1Z" fill="#494752"/>
</svg>
