<svg width="78" height="72" viewBox="0 0 78 72" fill="none" xmlns="http://www.w3.org/2000/svg">
<path d="M29.0132 7.83974L3.5619 52.4808C-0.876405 60.2671 4.67264 70 13.5493 70H64.4495C73.3284 70 78.8775 60.2671 74.4368 52.4808L48.9879 7.83974C44.5496 0.0534213 33.4515 0.0534213 29.0108 7.83974H29.0132Z" stroke="#AF52DE" stroke-width="2.5" stroke-miterlimit="10"/>
<path d="M35.9618 27.7468L35.7432 22L42.2131 22L41.9945 27.7468L41.0765 43.0026L36.8798 43.0026L35.9618 27.7468ZM38.9781 54C37.8415 54 36.8944 53.6279 36.1366 52.8837C35.3789 52.112 35 51.1611 35 50.031C35 48.9009 35.3789 47.9638 36.1366 47.2196C36.8944 46.4479 37.8415 46.062 38.9781 46.062C40.1148 46.062 41.0619 46.4479 41.8197 47.2196C42.6066 47.9638 43 48.9009 43 50.031C43 51.1611 42.6066 52.112 41.8197 52.8837C41.0619 53.6279 40.1148 54 38.9781 54Z" fill="#AF52DE"/>
</svg>
