<svg width="24" height="24" viewBox="0 0 24 24" fill="white" xmlns="http://www.w3.org/2000/svg">
<g clip-path="url(#clip0_3322_8041)">
<path d="M12 0C5.34545 0 0 5.34545 0 12C0 18.6545 5.34545 24 12 24C18.6545 24 24 18.6545 24 12C24 5.34545 18.6545 0 12 0ZM18.2727 9.65455L11.0727 16.8545C10.9636 16.9636 10.8 16.9636 10.6909 16.8545L5.56364 11.7273C5.45455 11.6182 5.45455 11.4545 5.56364 11.3455L7.09091 9.81818C7.2 9.70909 7.36364 9.70909 7.47273 9.81818L10.8545 13.2L16.3091 7.74546C16.4182 7.63636 16.5818 7.63636 16.6909 7.74546L18.2182 9.27273C18.3818 9.38182 18.3818 9.54545 18.2727 9.65455Z" fill="#BAB8BC"/>
</g>
<defs>
<clipPath id="clip0_3322_8041">
<rect width="24" height="24"/>
</clipPath>
</defs>
</svg>
