<svg width="25" height="24" viewBox="0 0 25 24" fill="none" xmlns="http://www.w3.org/2000/svg">
<path d="M12 4.5C12.9283 4.5 13.8185 4.86875 14.4749 5.52513C15.1313 6.1815 15.5 7.07174 15.5 8C15.5 8.92826 15.1313 9.8185 14.4749 10.4749C13.8185 11.1313 12.9283 11.5 12 11.5C11.0717 11.5 10.1815 11.1313 9.52513 10.4749C8.86875 9.8185 8.5 8.92826 8.5 8C8.5 7.07174 8.86875 6.1815 9.52513 5.52513C10.1815 4.86875 11.0717 4.5 12 4.5ZM12 14.5C14.1493 14.5 16.0695 14.9363 17.4339 15.6185C18.8281 16.3155 19.5 17.1863 19.5 18V19.5H4.5V18C4.5 17.1863 5.17194 16.3155 6.56611 15.6185C7.9305 14.9363 9.85073 14.5 12 14.5Z" stroke="black"/>
</svg>
