<svg width="25" height="24" viewBox="0 0 25 24" fill="none" xmlns="http://www.w3.org/2000/svg">
<path d="M5 8V10H7V11H5V13H4V11H2V10H4V8H5Z" fill="black"/>
<path d="M14 4.5C14.9283 4.5 15.8185 4.86875 16.4749 5.52513C17.1313 6.1815 17.5 7.07174 17.5 8C17.5 8.92826 17.1313 9.8185 16.4749 10.4749C15.8185 11.1313 14.9283 11.5 14 11.5C13.0717 11.5 12.1815 11.1313 11.5251 10.4749C10.8687 9.8185 10.5 8.92826 10.5 8C10.5 7.07174 10.8687 6.1815 11.5251 5.52513C12.1815 4.86875 13.0717 4.5 14 4.5ZM14 14.5C16.1493 14.5 18.0695 14.9363 19.4339 15.6185C20.8281 16.3155 21.5 17.1863 21.5 18V19.5H6.5V18C6.5 17.1863 7.17194 16.3155 8.56611 15.6185C9.9305 14.9363 11.8507 14.5 14 14.5Z" stroke="black"/>
</svg>
